<svg xmlns="http://www.w3.org/2000/svg" xmlns:xlink="http://www.w3.org/1999/xlink" viewBox="0 0 472.43 110.48"><defs><style>.cls-1{stroke-miterlimit:10;stroke-width:0.5px;fill:url(#linear-gradient);stroke:url(#linear-gradient-2);}.cls-2{fill:#fff;}</style><linearGradient id="linear-gradient" x1="0.25" y1="-489.02" x2="112.75" y2="-489.02" gradientTransform="matrix(1, 0, 0, -1, 0, -433.78)" gradientUnits="userSpaceOnUse"><stop offset="0" stop-color="#7703fc"/><stop offset="1" stop-color="#9e5df7"/></linearGradient><linearGradient id="linear-gradient-2" x1="0" y1="-489.02" x2="113" y2="-489.02" xlink:href="#linear-gradient"/></defs><g id="Layer_2" data-name="Layer 2"><g id="Layer_1-2" data-name="Layer 1"><g id="Layer_2-2" data-name="Layer 2"><g id="Layer_1-2-2" data-name="Layer 1-2"><path class="cls-1" d="M112.39,49.06a51.44,51.44,0,0,0-2.31-10.63,54.49,54.49,0,0,0-16.47-24.5A56.89,56.89,0,0,0,59.84.34,57.78,57.78,0,0,0,47.38,1a56.68,56.68,0,0,0-27,12.09A55,55,0,0,0,3.51,36.92a52.18,52.18,0,0,0-3,14.25v.22a3,3,0,0,1-.26,1.29v5.17a2.85,2.85,0,0,1,.26,1.26v.25a52.3,52.3,0,0,0,3,14.3,53.88,53.88,0,0,0,9.71,16.65,57,57,0,0,0,40.92,19.84,2.34,2.34,0,0,1,.79.08h3.17a2.58,2.58,0,0,1,.83-.08c1.48-.05,3-.19,4.19-.33a54.67,54.67,0,0,0,10.59-2.23,56.27,56.27,0,0,0,30-22.51,54.22,54.22,0,0,0,8.66-36M95.08,93a54.75,54.75,0,0,1-38.45,15.58h-.22a54.67,54.67,0,0,1-38.91-16,52.13,52.13,0,0,1-.6-73.72c.39-.4.79-.79,1.2-1.18A54.84,54.84,0,0,1,56.53,2.22h0A54.9,54.9,0,0,1,95,17.75,52.09,52.09,0,0,1,96.68,91.4c-.52.54-1.06,1.08-1.6,1.6"/><path class="cls-2" d="M217.13,65.07c-.07,0-.12,0-.14.11a11.15,11.15,0,0,1-3.07,6,11.63,11.63,0,0,1-6,3.25,9.25,9.25,0,0,1-1.74.17H178.13a1.31,1.31,0,0,1-.28,0,.81.81,0,0,1-.24-.17.61.61,0,0,1-.15-.24,1.31,1.31,0,0,1,0-.28V70.19a1.31,1.31,0,0,1,0-.28.58.58,0,0,1,.15-.25.78.78,0,0,1,.24-.16.71.71,0,0,1,.29,0h27.1A6.24,6.24,0,0,0,209.19,68a6,6,0,0,0,2-3.65,5.52,5.52,0,0,0-2.59-5.67,10.19,10.19,0,0,0-1.74-.89,4.14,4.14,0,0,0-1.63-.3H188.5a11.05,11.05,0,0,1-6.26-1.84,10.68,10.68,0,0,1-4.05-5c-3.08-7.62,2.6-13.5,7.69-14.66a8.57,8.57,0,0,1,1.88-.24h28.35a1.15,1.15,0,0,1,.58.09,1,1,0,0,1,.47.36v4.26a.94.94,0,0,1-.41.38.9.9,0,0,1-.56.07h-.3L188.58,41a5.31,5.31,0,0,0-1.85.33A5.63,5.63,0,0,0,183,46.6a5.21,5.21,0,0,0,.69,2.46,5.37,5.37,0,0,0,1.8,1.84,7.07,7.07,0,0,0,3.84,1.16c5.42,0,10.85.16,16.28.13,5.26,0,10.71,3.51,11.44,9.46,0,.09.06.1.13.11Z"/><path class="cls-2" d="M141.61,35.61H156.3a.66.66,0,0,1,.74.72V40c0,.51-.26.71-.79.74h-.43l-27.33.09a6,6,0,0,0-3.45,1.2,5.61,5.61,0,0,0-2,3,5.35,5.35,0,0,0,2.5,6,7.08,7.08,0,0,0,3.66,1.06c5.26,0,10.52.11,15.78.13a12.86,12.86,0,0,1,4.52.64,10.8,10.8,0,0,1,7.48,9,11.36,11.36,0,0,1-9.08,12.62,10,10,0,0,1-1.81.19H118.46a4.34,4.34,0,0,1-.51,0,.54.54,0,0,1-.25-.06.56.56,0,0,1-.2-.14.74.74,0,0,1-.14-.22.53.53,0,0,1,0-.25V70.19a.53.53,0,0,1,0-.25.61.61,0,0,1,.13-.22.6.6,0,0,1,.21-.14.54.54,0,0,1,.25-.06h27a6.34,6.34,0,0,0,2.43-.48,6.11,6.11,0,0,0,3.35-3.45,6,6,0,0,0,.38-2.4,5.28,5.28,0,0,0-1.87-3.89,8.39,8.39,0,0,0-3.09-1.71,3.74,3.74,0,0,0-1-.1H128.42A10.91,10.91,0,0,1,118,50.08c-2.79-7.57,3.2-13.57,8.59-14.39a9.26,9.26,0,0,1,1.39-.08Z"/><path class="cls-2" d="M447.46,38.71V71.89c0,.71.48,2-.62,2-1.46,0-.74-1.37-.74-2.07-.06-11.18,0-22.36,0-33.54a3.75,3.75,0,0,1,0-.67c.07-.47-.26-1.16.47-1.31s1.52-.31,2,.5l.82,1.32q10.13,16,20.23,32.12a3.64,3.64,0,0,0,1.47,1.66V37a.62.62,0,0,1,0-.27.72.72,0,0,1,.14-.24.53.53,0,0,1,.23-.16.54.54,0,0,1,.28,0,.66.66,0,0,1,.28,0,.7.7,0,0,1,.24.13.51.51,0,0,1,.15.23.62.62,0,0,1,0,.27v35.8c0,.48.18,1.14-.53,1.27s-1.55.3-2.1-.41a13.06,13.06,0,0,1-.95-1.5l-19.71-31.4a4.87,4.87,0,0,0-1.76-2"/><path class="cls-2" d="M423.41,55.22v8.44a8.87,8.87,0,0,1-1.23,4.92,9.18,9.18,0,0,1-3.74,3.49A18.59,18.59,0,0,1,400,72.3a9.55,9.55,0,0,1-4-3.66,9.09,9.09,0,0,1-1.3-5.21c0-5.49.05-11,0-16.45a9.38,9.38,0,0,1,1.46-5.63,9.74,9.74,0,0,1,4.52-3.77,19,19,0,0,1,17.25.23,9.46,9.46,0,0,1,4.19,3.65,9.21,9.21,0,0,1,1.35,5.32c-.12,2.81-.06,5.62-.06,8.44m-1.4-.1c0-2.66-.12-5.33,0-8,.25-5-3-7.76-6.36-9a19.19,19.19,0,0,0-13.32,0c-4.21,1.53-6.27,4.45-6.3,8.79V63.39A8,8,0,0,0,397.22,68a8.31,8.31,0,0,0,3.55,3.17,17.4,17.4,0,0,0,16.52,0A8.22,8.22,0,0,0,420.84,68,8,8,0,0,0,422,63.32v-8.2"/><path class="cls-2" d="M335.37,35.66a16.68,16.68,0,0,1,8,2,10,10,0,0,1,3.32,3c.22.32.69.73.05,1.1a1,1,0,0,1-.32.12.92.92,0,0,1-.33,0,.73.73,0,0,1-.31-.14.75.75,0,0,1-.21-.26l-.14-.18c-3.2-4.4-11.36-5.31-16.47-3a7.6,7.6,0,0,0-3.46,2.8,7.43,7.43,0,0,0-1.28,4.21c-.09,3,1.63,4.94,4.19,6.36a29.11,29.11,0,0,0,7.94,2.54,26.39,26.39,0,0,1,7.21,2.56c6.33,3.55,5.94,11.49.66,15.19-5.87,4.11-15.58,3.24-20.47-1.91-.06-.06-.13-.1-.15-.17-.19-.54-1.36-.86-.56-1.59s1.15.19,1.58.64A15.18,15.18,0,0,0,342,71.7c3.67-1.94,5.45-5.68,4.42-9.27A7.4,7.4,0,0,0,345,59.68a7.71,7.71,0,0,0-2.48-1.91c-2.62-1.43-5.54-1.93-8.39-2.62a25.39,25.39,0,0,1-6.59-2.34c-3-1.68-4.73-4.09-4.65-7.57a8.42,8.42,0,0,1,1.24-4.45,8.66,8.66,0,0,1,3.41-3.17,17,17,0,0,1,7.86-2"/><path class="cls-2" d="M261.18,72.13a7.93,7.93,0,0,0,1.42-2.9q5.91-15.69,11.79-31.4c.3-.8.42-2.09,1.65-1.54.86.4,0,1.34-.26,2Q269.45,55.38,263,72.42c-.25.69-.26,1.59-1.47,1.68s-1.64-.68-2-1.62q-5-13.19-10.08-26.35-1.68-4.37-3.35-8.71c-.15-.4-.5-.86.16-1.09a1,1,0,0,1,.68,0,.89.89,0,0,1,.51.42c.25.53.44,1.1.65,1.65l12,31.32c.29.74.63,1.45,1.06,2.47"/><path class="cls-2" d="M300.31,55.29V72.4c0,.59.36,1.56-.7,1.55s-.7-1-.7-1.57V37.72a7.21,7.21,0,0,1,0-.93.62.62,0,0,1,.09-.26.61.61,0,0,1,.19-.2.64.64,0,0,1,.26-.1.45.45,0,0,1,.28,0,.41.41,0,0,1,.22,0,.7.7,0,0,1,.31.31.81.81,0,0,1,0,.22V55.29Z"/><path class="cls-2" d="M372.18,55.29V72.4c0,.59.35,1.56-.7,1.55s-.7-1-.7-1.57V37.72a7.22,7.22,0,0,1,0-.93.62.62,0,0,1,.09-.26.61.61,0,0,1,.19-.2.52.52,0,0,1,.26-.1.45.45,0,0,1,.28,0,.41.41,0,0,1,.22,0,.46.46,0,0,1,.18.13.57.57,0,0,1,.12.18.41.41,0,0,1,0,.22v1.56Z"/><path class="cls-2" d="M30.08,35.93H48.64c.61,0,.84.26.85.84V41.2c0,.59-.25.8-.85.83H33.52c-.28,0-.39.11-.37.38V73.34c0,1.14-.11,1.24-1.31,1.24H28.19a4.34,4.34,0,0,1-.51,0,.71.71,0,0,1-.29,0,1,1,0,0,1-.24-.15.82.82,0,0,1-.16-.25.66.66,0,0,1,0-.28v-31c0-1,.15-.88-.87-.9H11.46c-.61,0-.83-.25-.85-.83s0-1.43,0-2.14V36.77c0-.59.25-.8.85-.84Z"/><path class="cls-2" d="M64.43,74.61a1,1,0,0,1,.2-.73L81.86,37a2,2,0,0,1,.84-1,1.5,1.5,0,0,1,.62-.19,1.43,1.43,0,0,1,.65.06,1.56,1.56,0,0,1,.57.3,1.64,1.64,0,0,1,.41.5c.26.49.47,1,.7,1.49L102.2,73.68c.12.25.23.51.35.77-.16.21-.38.13-.56.13H97.17a.94.94,0,0,1-1-.66L83.86,47.26c-.1-.21-.14-.46-.36-.61a1.52,1.52,0,0,0-.34.59L70.83,73.89a2.41,2.41,0,0,0-.15.33.5.5,0,0,1-.22.31.59.59,0,0,1-.39.08Z"/></g></g></g></g></svg>